<?xml version="1.0" encoding="UTF-8" standalone="no"?>
<!-- Created with Inkscape (http://www.inkscape.org/) -->

<svg
   width="18.529102mm"
   height="3.043225mm"
   viewBox="0 0 18.529102 3.043225"
   version="1.1"
   id="svg1"
   inkscape:version="1.4.2 (ebf0e940d0, 2025-05-08)"
   sodipodi:docname="logo-dark.svg"
   xmlns:inkscape="http://www.inkscape.org/namespaces/inkscape"
   xmlns:sodipodi="http://sodipodi.sourceforge.net/DTD/sodipodi-0.dtd"
   xmlns="http://www.w3.org/2000/svg"
   xmlns:svg="http://www.w3.org/2000/svg">
  <sodipodi:namedview
     id="namedview1"
     pagecolor="#ffffff"
     bordercolor="#000000"
     borderopacity="0.25"
     inkscape:showpageshadow="2"
     inkscape:pageopacity="0.0"
     inkscape:pagecheckerboard="0"
     inkscape:deskcolor="#d1d1d1"
     inkscape:document-units="mm"
     inkscape:zoom="27.623569"
     inkscape:cx="27.856647"
     inkscape:cy="5.8645572"
     inkscape:window-width="3840"
     inkscape:window-height="2124"
     inkscape:window-x="1080"
     inkscape:window-y="748"
     inkscape:window-maximized="1"
     inkscape:current-layer="layer1" />
  <defs id="defs1" />
  <g
     inkscape:label="Layer 1"
     inkscape:groupmode="layer"
     id="layer1"
     transform="translate(-62.9858,-133.27801)">
    <g
       id="text1"
       style="font-size:3.175px;stroke-width:0.244;fill:#ffffff"
       aria-label="head{…}son">
      <path
         style="font-family:'Roboto Mono';-inkscape-font-specification:'Roboto Mono'"
         d="m 63.272604,134.32601 v -0.95343 H 62.9858 v 2.38125 h 0.286804 v -1.21853 q 0.03101,-0.0496 0.06976,-0.0899 0.04031,-0.0419 0.08682,-0.0729 0.05891,-0.0403 0.128674,-0.062 0.06976,-0.0217 0.147278,-0.0217 0.09457,-0.002 0.167432,0.0264 0.07286,0.0264 0.120923,0.0806 0.04496,0.0496 0.06821,0.12558 0.02326,0.0744 0.02326,0.17363 v 1.05885 h 0.286804 v -1.05575 q 0,-0.16898 -0.04186,-0.29145 -0.04031,-0.12403 -0.116272,-0.20464 -0.07596,-0.0806 -0.184485,-0.11783 -0.10697,-0.0387 -0.238745,-0.0387 -0.100769,0.002 -0.190686,0.0294 -0.08837,0.0279 -0.162781,0.0822 -0.04651,0.0326 -0.08837,0.076 -0.04186,0.0419 -0.07596,0.093 z m 2.359546,1.45883 q 0.244947,0 0.410828,-0.0977 0.167431,-0.0992 0.251147,-0.22635 l -0.175183,-0.13642 q -0.07906,0.10232 -0.198437,0.16433 -0.119373,0.062 -0.272852,0.062 -0.116272,0 -0.21239,-0.0434 -0.09612,-0.0434 -0.164331,-0.11937 -0.06666,-0.0713 -0.10542,-0.16433 -0.03721,-0.093 -0.04806,-0.21549 v -0.0109 h 1.198376 v -0.12868 q 0,-0.17518 -0.04496,-0.32556 -0.04341,-0.15038 -0.133325,-0.262 -0.08992,-0.11007 -0.226343,-0.17208 -0.134876,-0.0636 -0.31626,-0.0636 -0.144177,0 -0.282153,0.0589 -0.136426,0.0589 -0.243396,0.16898 -0.108521,0.11162 -0.173633,0.27285 -0.06511,0.15968 -0.06511,0.36277 v 0.0651 q 0,0.17519 0.05891,0.32401 0.05891,0.14883 0.164331,0.25735 0.10542,0.10852 0.252698,0.16898 0.148828,0.0605 0.325561,0.0605 z m -0.03721,-1.50379 q 0.110071,0 0.189136,0.0403 0.08061,0.0403 0.133325,0.10542 0.05271,0.0651 0.08217,0.15503 0.02945,0.0884 0.02945,0.16588 v 0.0139 h -0.90227 q 0.01705,-0.11627 0.05891,-0.20464 0.04341,-0.0899 0.10542,-0.15192 0.06201,-0.0605 0.139526,-0.0915 0.07752,-0.0326 0.164331,-0.0326 z m 2.303736,1.47278 h 0.299206 v -0.0248 q -0.02791,-0.0698 -0.04341,-0.16279 -0.0155,-0.0946 -0.0155,-0.17828 v -0.7798 q 0,-0.14107 -0.05116,-0.24649 -0.05116,-0.10542 -0.139526,-0.17674 -0.08992,-0.0698 -0.21239,-0.10387 -0.122473,-0.0357 -0.2651,-0.0357 -0.15658,0 -0.280603,0.0434 -0.122473,0.0434 -0.20774,0.11317 -0.08682,0.0713 -0.133325,0.15968 -0.04496,0.0884 -0.04651,0.17983 h 0.288355 q 0,-0.0527 0.02481,-0.10077 0.02635,-0.0496 0.07286,-0.0853 0.04651,-0.0357 0.113172,-0.0574 0.06821,-0.0217 0.153479,-0.0217 0.09147,0 0.164331,0.0233 0.07441,0.0233 0.125574,0.0651 0.05116,0.0434 0.07906,0.10387 0.02791,0.0605 0.02791,0.13642 v 0.13178 h -0.313159 q -0.175184,0 -0.31781,0.0341 -0.141077,0.0341 -0.241846,0.10232 -0.100769,0.0698 -0.15658,0.17364 -0.05426,0.10387 -0.05426,0.24184 0,0.10542 0.04031,0.19689 0.04186,0.0899 0.117822,0.15503 0.07441,0.0667 0.181384,0.10542 0.108521,0.0388 0.241846,0.0388 0.08217,0 0.155029,-0.0171 0.07286,-0.017 0.137976,-0.0465 0.06356,-0.0294 0.116272,-0.0682 0.05426,-0.0388 0.09767,-0.0822 0.0046,0.0527 0.01395,0.10231 0.01085,0.0481 0.02791,0.0806 z m -0.506946,-0.21859 q -0.08372,0 -0.147278,-0.0217 -0.06356,-0.0217 -0.10542,-0.0605 -0.04186,-0.0372 -0.06356,-0.0899 -0.02015,-0.0527 -0.02015,-0.11473 0,-0.0651 0.02326,-0.11627 0.0248,-0.0512 0.07131,-0.0884 0.06511,-0.0527 0.175183,-0.0775 0.111621,-0.0264 0.260449,-0.0264 h 0.266651 v 0.33951 q -0.02481,0.0496 -0.06821,0.0961 -0.04341,0.045 -0.102319,0.0806 -0.06046,0.0357 -0.133326,0.0574 -0.07286,0.0217 -0.156579,0.0217 z m 1.255737,-0.63407 v 0.0325 q 0,0.17984 0.04806,0.33642 0.04806,0.15503 0.134875,0.26975 0.08682,0.11472 0.20929,0.17983 0.124023,0.0651 0.275952,0.0651 0.155029,0 0.271301,-0.0527 0.116272,-0.0527 0.199988,-0.15503 l 0.0124,0.17673 h 0.263549 v -2.38125 h -0.286804 v 0.86971 q -0.08217,-0.0961 -0.195337,0.15348 -0.113172,0.24779 -0.113172,0.65422 z m 0.602153,-0.37516 q -0.119373,0.15038 -0.333313,0.15038 -0.08682,0 -0.159679,-0.0357 -0.07286,-0.0372 -0.125574,-0.0992 -0.05271,-0.0636 -0.08217,-0.15193 -0.02945,-0.0899 -0.02945,-0.1938 v -0.0419 q 0,-0.10852 0.02945,-0.19791 0.02945,-0.0915 0.08217,-0.15503 0.05271,-0.0636 0.125574,-0.10077 0.07286,-0.0387 0.159679,-0.0387 0.21394,0 0.333313,0.15658 0.119373,0.15503 0.119373,0.44804 0,0.29145 -0.119373,0.44183 z m 1.306898,0.59376 q 0.165881,0 0.277502,-0.062 0.111621,-0.0636 0.175183,-0.16433 0.06401,-0.10077 0.09147,-0.2341 0.02945,-0.13587 0.02945,-0.2806 v -0.90692 h -0.299206 v 0.93943 q 0,0.22789 -0.100769,0.34686 -0.100769,0.11627 -0.26665,0.11627 -0.174428,0 -0.275952,-0.11162 -0.101525,-0.11317 -0.101525,-0.29299 v -0.99779 h -0.299206 v 1.73619 h 0.299206 v -0.18059 q 0.04961,0.0899 0.12943,0.13952 0.07906,0.0511 0.173673,0.0511 z m 2.114646,-3.1297 h -0.286804 v 3.57188 h 0.286804 z m 0.914661,1.87506 h 0.326316 v -0.23794 H 69.1593 v 0.23794 h 0.633821 v 0.52615 H 69.1593 v 0.23794 h 0.65322 v 0.54555 H 69.1593 v 0.23794 h 0.943616 v -1.78514 H 69.1593 v 0.23794 h 0.794312 z m 1.014928,1.65256 q 0.137976,0 0.226343,-0.0791 0.08837,-0.0806 0.08837,-0.20154 v -1.12475 h 0.399978 v -0.23794 h -0.399978 v -0.60215 h -0.299207 v 0.60215 h -0.286804 v 0.23794 h 0.286804 v 1.24892 q 0,0.13487 0.09147,0.22014 0.09302,0.0853 0.192236,0.0853 z m 0.64312,-0.0202 h 0.06741 q 0.117822,0 0.196888,-0.0791 0.08061,-0.0791 0.08061,-0.20154 0,-0.12092 -0.08061,-0.19999 -0.07752,-0.0791 -0.196888,-0.0791 h -0.06741 q -0.117822,0 -0.198438,0.0791 -0.07906,0.0791 -0.07906,0.19999 0,0.12247 0.07906,0.20154 0.08061,0.0791 0.198438,0.0791 z m 1.188276,0.0155 q 0.170532,0 0.326316,-0.0605 0.155029,-0.062 0.269201,-0.17363 0.114172,-0.11317 0.179834,-0.27285 0.06511,-0.16113 0.06511,-0.35306 v -0.0248 q 0,-0.1938 -0.06511,-0.35516 -0.06566,-0.16113 -0.179834,-0.27285 -0.114172,-0.11317 -0.269201,-0.17363 -0.155784,-0.062 -0.326316,-0.062 -0.171287,0 -0.326316,0.062 -0.155784,0.0605 -0.269956,0.17363 -0.114172,0.11162 -0.179834,0.27285 -0.06511,0.16136 -0.06511,0.35516 v 0.0248 q 0,0.19193 0.06511,0.35306 0.06566,0.15968 0.179834,0.27285 0.114172,0.11161 0.269956,0.17363 0.155029,0.0605 0.326316,0.0605 z m 0,-0.26665 q -0.116272,0 -0.21469,-0.0465 -0.09612,-0.0481 -0.167431,-0.13178 -0.07131,-0.0853 -0.111621,-0.20154 -0.04031,-0.11627 -0.04031,-0.25735 v -0.0248 q 0,-0.14387 0.04031,-0.26045 0.04031,-0.11837 0.111621,-0.20309 0.07131,-0.0853 0.167431,-0.13333 0.09897,-0.0481 0.21469,-0.0481 0.113172,0 0.207739,0.0481 0.09457,0.0465 0.164331,0.13178 0.07131,0.0849 0.111621,0.20154 0.04031,0.11595 0.04031,0.26045 v 0.0248 q 0,0.14085 -0.04031,0.25735 -0.04031,0.11627 -0.111621,0.20154 -0.0719,0.0837 -0.164331,0.13178 -0.09382,0.0465 -0.207739,0.0465 z m 2.195257,0.25115 q 0.179834,0 0.323216,-0.0636 0.145732,-0.0636 0.241846,-0.17713 0.09767,-0.11317 0.148832,-0.27441 0.05116,-0.16268 0.05116,-0.35846 v -0.0108 q 0,-0.19689 -0.05116,-0.35723 -0.05116,-0.16013 -0.148832,-0.27285 -0.09767,-0.11317 -0.241846,-0.17674 -0.143382,-0.0651 -0.323216,-0.0651 -0.131422,0 -0.238745,0.0372 -0.10542,0.0357 -0.193787,0.11473 v -1.20537 h -0.299206 v 3.57188 h 0.286803 v -0.20464 q 0.08992,0.0977 0.204094,0.14418 0.115473,0.0465 0.240295,0.0465 z m -0.04651,-0.26356 q -0.09147,0 -0.170532,-0.0341 -0.07906,-0.0341 -0.134875,-0.0961 -0.05506,-0.0636 -0.08597,-0.15348 -0.02945,-0.0899 -0.02945,-0.20154 v -0.0341 q 0,-0.11007 0.02945,-0.19844 0.03091,-0.0899 0.08597,-0.15192 0.05506,-0.0636 0.134875,-0.0977 0.07906,-0.0357 0.170532,-0.0357 0.09147,0 0.170532,0.0357 0.07981,0.0341 0.134876,0.0977 0.05506,0.062 0.08597,0.15192 0.02945,0.0884 0.02945,0.19844 v 0.0341 q 0,0.11162 -0.02945,0.20154 -0.03091,0.0899 -0.08597,0.15348 -0.05506,0.062 -0.134876,0.0961 -0.07906,0.0341 -0.170532,0.0341 z m 0.983912,-0.17053 h 0.299207 v -1.73619 h -0.299207 z m 0.150379,-2.4014 q 0.08217,0 0.139527,-0.0543 0.05736,-0.0551 0.05736,-0.13488 0,-0.0806 -0.05736,-0.13487 -0.05736,-0.0551 -0.139527,-0.0551 -0.08217,0 -0.139527,0.0551 -0.05661,0.0543 -0.05661,0.13487 0,0.0798 0.05661,0.13488 0.05736,0.0543 0.139527,0.0543 z m 1.138072,2.4014 h 0.299206 v -0.18058 q 0.05116,0.0915 0.131778,0.14107 0.08136,0.0496 0.175183,0.0496 0.165881,0 0.277502,-0.062 0.111621,-0.0636 0.175183,-0.16433 0.06401,-0.10077 0.09147,-0.2341 0.02945,-0.13587 0.02945,-0.2806 v -0.90692 h -0.299206 v 0.93943 q 0,0.22789 -0.100769,0.34686 -0.100769,0.11627 -0.26665,0.11627 -0.174428,0 -0.275952,-0.11162 -0.101525,-0.11317 -0.101525,-0.29299 v -0.99779 h -0.299206 z m 1.917392,0 q 0.140127,0 0.255798,-0.0605 0.116272,-0.062 0.195337,-0.16898 v 0.17673 h 0.286804 v -1.73619 h -0.299206 v 0.95343 q 0,0.22789 -0.100769,0.34686 -0.100769,0.11627 -0.26665,0.11627 -0.174428,0 -0.275952,-0.11162 -0.101525,-0.11317 -0.101525,-0.29299 v -1.00942 h -0.299206 v 1.73619 h 0.299206 v -0.18058 q 0.04961,0.0915 0.131778,0.14107 0.08136,0.0496 0.173673,0.0496 z m 2.212317,-0.0636 q 0.147278,0 0.277503,-0.0465 0.130225,-0.0481 0.230994,-0.13488 0.100769,-0.0899 0.16023,-0.22014 0.06046,-0.13178 0.06046,-0.30386 v -0.0124 h -0.280603 q 0,0.10542 -0.04031,0.18679 -0.04031,0.0791 -0.10617,0.13178 -0.06566,0.0527 -0.152479,0.0791 -0.08597,0.0264 -0.182135,0.0264 -0.124023,0 -0.220139,-0.0403 -0.09612,-0.0419 -0.167432,-0.11937 -0.07131,-0.0775 -0.108521,-0.18679 -0.03566,-0.10912 -0.03566,-0.24339 0,-0.14013 0.03876,-0.2527 0.04031,-0.11317 0.110071,-0.19144 0.06821,-0.0791 0.164331,-0.12247 0.09767,-0.0434 0.216289,-0.0434 0.10542,0 0.190686,0.0264 0.08597,0.0264 0.153479,0.0806 0.06976,0.0527 0.118573,0.13643 0.04806,0.0822 0.07131,0.19454 h 0.283704 q -0.02015,-0.16588 -0.07286,-0.28759 -0.05116,-0.12171 -0.134876,-0.20464 -0.08372,-0.0822 -0.197888,-0.12403 -0.112471,-0.0419 -0.252698,-0.0419 -0.170532,0 -0.31626,0.0605 -0.144177,0.0605 -0.250397,0.17363 -0.106171,0.11317 -0.165881,0.27441 -0.06046,0.15968 -0.06046,0.35456 v 0.0248 q 0,0.19454 0.06046,0.35515 0.05971,0.15968 0.165881,0.2713 0.10542,0.11162 0.250397,0.17364 0.145728,0.0605 0.31626,0.0605 z m 1.342559,0.0636 q 0.20929,0 0.377003,-0.0713 0.169729,-0.0734 0.285455,-0.19844 0.116272,-0.12613 0.175183,-0.29766 0.05971,-0.17128 0.05971,-0.36687 v -0.0248 q 0,-0.19689 -0.05971,-0.36997 -0.05891,-0.17363 -0.175183,-0.29921 -0.115,0 -0.284002,-0.0713 -0.168178,-0.0713 -0.377456,-0.0713 -0.210391,0 -0.378559,0.0713 -0.168178,0.0713 -0.283701,0.2031 -0.115,0.13178 -0.175183,0.30924 -0.05971,0.17519 -0.05971,0.39345 v 0.0248 q 0,0.20154 0.05971,0.37152 0.06018,0.16818 0.175183,0.29299 0.116272,0.12402 0.284454,0.19454 0.168178,0.0706 0.378107,0.0706 z m 0,-0.27365 q -0.139527,0 -0.253498,-0.0512 -0.113972,-0.0512 -0.197086,-0.14338 -0.08311,-0.0915 -0.130225,-0.22015 -0.04792,-0.12867 -0.04792,-0.2837 v -0.0248 q 0.000503,-0.15856 0.04907,-0.28759 0.04907,-0.12943 0.132575,-0.21549 0.08296,-0.086 0.196284,-0.13022 0.113472,-0.044 0.251298,-0.044 0.139527,0 0.2521,0.0512 0.113472,0.0504 0.196284,0.14107 0.08327,0.0903 0.131027,0.21784 0.04742,0.12613 0.04742,0.2837 v 0.0248 q 0,0.15658 -0.04792,0.28525 -0.04792,0.12868 -0.130225,0.22014 -0.08311,0.0915 -0.196284,0.14338 -0.112371,0.0512 -0.2521,0.0512 z m 2.433641,0.26665 q 0.172076,0 0.318561,-0.062 0.146482,-0.0636 0.252698,-0.17518 0.108521,-0.11317 0.168179,-0.27285 0.06046,-0.16113 0.06046,-0.35847 v -0.004 q 0,-0.19789 -0.06046,-0.35847 -0.05966,-0.15968 -0.168179,-0.2713 -0.106216,-0.11317 -0.252698,-0.17519 -0.146485,-0.0636 -0.318561,-0.0636 -0.146481,0 -0.2674,0.0527 -0.120922,0.0512 -0.20774,0.15348 v -0.17673 h -0.286803 v 2.38125 h 0.299206 v -0.94127 q 0,-0.062 0.0093,-0.12092 0.0098,-0.0605 0.0284,-0.11007 0.0179,0 0.05116,0.0295 0.03411,0.0294 0.08106,0.0605 0.04695,0.0295 0.106921,0.0496 0.06012,0.0187 0.12983,0.0187 z m -0.194537,-0.26665 q -0.11047,0 -0.195337,-0.0311 -0.08382,-0.0326 -0.143382,-0.093 -0.05846,-0.0605 -0.09147,-0.14883 -0.03301,-0.0899 -0.03301,-0.20464 v -0.0248 q 0,-0.11857 0.03101,-0.20774 0.03101,-0.0899 0.08992,-0.15038 0.03061,-0.0309 0.07326,-0.0512 0.04308,-0.0217 0.09537,-0.0338 0.05269,-0.0139 0.11287,-0.0186 0.06102,-0.005 0.128674,-0.005 0.09147,0 0.170532,0.0357 0.08061,0.0341 0.139526,0.0992 0.05971,0.0636 0.09222,0.15658 0.03301,0.0915 0.03301,0.20774 v 0.0248 q 0,0.11317 -0.03301,0.20309 -0.03301,0.0899 -0.09222,0.15192 -0.05891,0.0605 -0.139526,0.093 -0.07906,0.0311 -0.170532,0.0311 z m 1.210751,0.0202 q 0.170532,0 0.325561,-0.0605 0.155029,-0.062 0.269956,-0.17363 0.114172,-0.11317 0.179834,-0.27285 0.06511,-0.16113 0.06511,-0.35306 v -0.0248 q 0,-0.1938 -0.06511,-0.35516 -0.06566,-0.16113 -0.179834,-0.27285 -0.114172,-0.11317 -0.269956,-0.17363 -0.155784,-0.062 -0.325561,-0.062 -0.171287,0 -0.326316,0.062 -0.155784,0.0605 -0.269956,0.17363 -0.114172,0.11162 -0.179834,0.27285 -0.06511,0.16136 -0.06511,0.35516 v 0.0248 q 0,0.19193 0.06511,0.35306 0.06566,0.15968 0.179834,0.27285 0.114172,0.11161 0.269956,0.17363 0.155029,0.0605 0.326316,0.0605 z m 0,-0.26665 q -0.116272,0 -0.21469,-0.0465 -0.09612,-0.0481 -0.167431,-0.13178 -0.07131,-0.0853 -0.111621,-0.20154 -0.04031,-0.11627 -0.04031,-0.25735 v -0.0248 q 0,-0.14387 0.04031,-0.26045 0.04031,-0.11837 0.111621,-0.20309 0.07131,-0.0853 0.167431,-0.13333 0.09897,-0.0481 0.21469,-0.0481 0.113172,0 0.207739,0.0481 0.09457,0.0465 0.164331,0.13178 0.07131,0.0849 0.111621,0.20154 0.04031,0.11595 0.04031,0.26045 v 0.0248 q 0,0.14085 -0.04031,0.25735 -0.04031,0.11627 -0.111621,0.20154 -0.0719,0.0837 -0.164331,0.13178 -0.09382,0.0465 -0.207739,0.0465 z m 1.356512,0.26665 q 0.156579,0 0.296106,-0.062 0.140127,-0.0636 0.241846,-0.17518 0.102319,-0.11317 0.160231,-0.27285 0.05971,-0.16113 0.05971,-0.35847 v -0.004 q 0,-0.19789 -0.05971,-0.35847 -0.05736,-0.15968 -0.160231,-0.2713 -0.101525,-0.11317 -0.241846,-0.17519 -0.139377,-0.0636 -0.296106,-0.0636 -0.10387,0 -0.194537,0.0295 -0.09147,0.0294 -0.166632,0.0841 -0.07286,0.0543 -0.126325,0.13258 -0.05271,0.0775 -0.08217,0.17673 v -1.47123 h -0.299206 v 2.38125 h 0.299206 v -0.18989 q 0.05271,0.0915 0.128674,0.14883 0.07752,0.0574 0.172883,0.0574 z m 0,-0.26355 q -0.08992,0 -0.164331,-0.0341 -0.07441,-0.0357 -0.126325,-0.0977 -0.04961,-0.0636 -0.07752,-0.15658 -0.02635,-0.0946 -0.02635,-0.20774 v -0.0248 q 0,-0.11007 0.02711,-0.20029 0.02711,-0.0915 0.07752,-0.15503 0.05271,-0.0636 0.126325,-0.0992 0.07441,-0.0357 0.164331,-0.0357 0.08837,0 0.162781,0.0357 0.07441,0.0357 0.126325,0.0992 0.05116,0.0636 0.07752,0.15503 0.02711,0.0907 0.02711,0.20029 v 0.0248 q 0,0.11317 -0.02711,0.20774 -0.02635,0.0922 -0.07752,0.15658 -0.05116,0.062 -0.126325,0.0977 -0.07441,0.0341 -0.162781,0.0341 z m 0.959633,0.17053 h 0.299207 v -1.73619 h -0.299207 z"
         />
    </g>
  </g>
</svg>

